<svg xmlns="http://www.w3.org/2000/svg" viewBox="0 0 1200 650">
<defs><radialGradient id="g" cx="18%" cy="8%" r="70%"><stop offset="0" stop-color="#e7c66f" stop-opacity=".18"/><stop offset="1" stop-color="#07080a" stop-opacity="0"/></radialGradient></defs>
<rect width="1200" height="650" fill="#07080a"/><rect width="1200" height="650" fill="url(#g)"/>
<text x="70" y="78" fill="#fff" font-size="28" font-family="Tahoma,Arial,sans-serif" font-weight="800">PARS SPACE</text>
<text x="70" y="112" fill="#858b95" font-size="15" font-family="Tahoma,Arial,sans-serif">MULTI · DEMO</text>
<rect x="70" y="150" width="1060" height="410" rx="34" fill="#101114" stroke="#292c32"/>
        <rect x="110" y="195" width="520" height="95" rx="22" fill="#17191d"/><text x="145" y="235" fill="#e7c66f" font-size="18" font-weight="700">PARS SPACE · MULTI</text><text x="145" y="270" fill="#fff" font-size="30" font-weight="800">Pars Premium</text>
        <rect x="675" y="195" width="405" height="95" rx="22" fill="#17191d"/><text x="705" y="232" fill="#8e949f" font-size="16">اشتراک</text><text x="705" y="268" fill="#fff" font-size="22">/sub/pars-premium</text>
        <rect x="110" y="320" width="970" height="78" rx="20" fill="#14161a"/><circle cx="150" cy="359" r="9" fill="#e7c66f"/><text x="178" y="353" fill="#fff" font-size="19">Premium-01</text><text x="178" y="380" fill="#858b95" font-size="14">VLESS · 18 اتصال · 620 MB</text><text x="1000" y="362" text-anchor="end" fill="#8fe0b5" font-size="15">فعال</text>
        <rect x="110" y="415" width="970" height="78" rx="20" fill="#14161a"/><circle cx="150" cy="454" r="9" fill="#e7c66f"/><text x="178" y="448" fill="#fff" font-size="19">Premium-02</text><text x="178" y="475" fill="#858b95" font-size="14">VLESS · 7 اتصال · 1.2 GB</text><text x="1000" y="457" text-anchor="end" fill="#8fe0b5" font-size="15">فعال</text>
</svg>