<svg xmlns="http://www.w3.org/2000/svg" viewBox="0 0 1200 650"><defs><linearGradient id="g" x1="0" x2="1"><stop stop-color="#f5d989"/><stop offset="1" stop-color="#b78b32"/></linearGradient><radialGradient id="r"><stop stop-color="#e0b84f" stop-opacity=".2"/><stop offset="1" stop-color="#080a0e" stop-opacity="0"/></radialGradient></defs><rect width="1200" height="650" rx="36" fill="#07090d"/><circle cx="210" cy="160" r="360" fill="url(#r)"/><rect x="70" y="75" width="1060" height="500" rx="34" fill="#0d1015" stroke="#30343b"/><text x="130" y="145" fill="#747c87" font-family="Arial" font-size="12" letter-spacing="3">PARS SPACE / AUTH</text><text x="130" y="210" fill="#fff" font-family="Arial" font-size="50" font-weight="800">ورود به فضای مدیریت</text><text x="130" y="245" fill="#858d97" font-family="Arial" font-size="16">دسترسی امن به کاربران، کانفیگ‌ها و اشتراک‌ها</text><rect x="720" y="125" width="330" height="370" rx="28" fill="#11151b" stroke="#2d333b"/><text x="760" y="180" fill="#fff" font-family="Arial" font-size="22" font-weight="700">ورود</text><text x="760" y="225" fill="#7d858f" font-family="Arial" font-size="12">نام کاربری</text><rect x="760" y="240" width="250" height="48" rx="13" fill="#090c10" stroke="#30353d"/><text x="780" y="270" fill="#6f7780" font-family="Arial" font-size="13">admin</text><text x="760" y="320" fill="#7d858f" font-family="Arial" font-size="12">رمز عبور</text><rect x="760" y="335" width="250" height="48" rx="13" fill="#090c10" stroke="#30353d"/><circle cx="786" cy="359" r="4" fill="#aaa"/><circle cx="802" cy="359" r="4" fill="#aaa"/><circle cx="818" cy="359" r="4" fill="#aaa"/><rect x="760" y="410" width="250" height="48" rx="13" fill="url(#g)"/><text x="885" y="440" fill="#111" font-family="Arial" font-size="14" font-weight="700" text-anchor="middle">ورود به پنل</text><path d="M130 340 H560 M130 380 H480 M130 420 H530" stroke="#242a31" stroke-width="15" stroke-linecap="round"/></svg>