<svg xmlns="http://www.w3.org/2000/svg" viewBox="0 0 1200 650"><defs><linearGradient id="g" x1="0" x2="1"><stop stop-color="#d7b45a"/><stop offset="1" stop-color="#fff0ad"/></linearGradient></defs><rect width="1200" height="650" rx="34" fill="#070707"/><rect x="95" y="75" width="1010" height="500" rx="32" fill="#101010" stroke="#2b2b2b"/><text x="150" y="145" fill="#d7b45a" font-family="Arial" font-size="13" letter-spacing="3">PARS SPACE / SUBSCRIPTION</text><text x="150" y="190" fill="#fff" font-family="Arial" font-size="37" font-weight="800">اشتراک شخصی</text><text x="150" y="222" fill="#888" font-family="Arial" font-size="14">یک لینک برای کل کانفیگ‌های این کاربر</text><rect x="150" y="255" width="900" height="72" rx="18" fill="#090909" stroke="#333"/><text x="180" y="299" fill="#bbb" font-family="monospace" font-size="15">https://panel.example.com/sub/7HkP...</text><rect x="875" y="269" width="145" height="44" rx="12" fill="url(#g)"/><text x="948" y="297" fill="#111" font-family="Arial" font-size="13" font-weight="700" text-anchor="middle">کپی لینک</text><text x="150" y="365" fill="#777" font-family="Arial" font-size="12">مصرف کل</text><text x="150" y="410" fill="#fff" font-family="Arial" font-size="30" font-weight="800">18.4 GB</text><text x="390" y="365" fill="#777" font-family="Arial" font-size="12">حجم کل</text><text x="390" y="410" fill="#fff" font-family="Arial" font-size="30" font-weight="800">100 GB</text><rect x="150" y="438" width="900" height="8" rx="4" fill="#282828"/><rect x="150" y="438" width="166" height="8" rx="4" fill="url(#g)"/><text x="150" y="495" fill="#777" font-family="Arial" font-size="12">۳۱ روز اخیر</text><g fill="#d7b45a"><rect x="155" y="525" width="10" height="22" rx="4"/><rect x="190" y="515" width="10" height="32" rx="4"/><rect x="225" y="530" width="10" height="17" rx="4"/><rect x="260" y="500" width="10" height="47" rx="4"/><rect x="295" y="520" width="10" height="27" rx="4"/><rect x="330" y="508" width="10" height="39" rx="4"/><rect x="365" y="532" width="10" height="15" rx="4"/></g></svg>